<?xml version="1.0" encoding="UTF-8" standalone="no"?>
<!DOCTYPE svg PUBLIC "-//W3C//DTD SVG 1.1//EN"
 "http://www.w3.org/Graphics/SVG/1.1/DTD/svg11.dtd">
<!-- Generated by graphviz version 2.50.0 (0)
 -->
<!-- Title: Tree Pages: 1 -->
<svg width="992pt" height="790pt"
 viewBox="0.00 0.00 991.50 790.00" xmlns="http://www.w3.org/2000/svg" xmlns:xlink="http://www.w3.org/1999/xlink">
<g id="graph0" class="graph" transform="scale(1 1) rotate(0) translate(4 786)">
<title>Tree</title>
<polygon fill="white" stroke="transparent" points="-4,4 -4,-786 987.5,-786 987.5,4 -4,4"/>
<!-- 0 -->
<g id="node1" class="node">
<title>0</title>
<path fill="#eda978" stroke="black" d="M669.5,-782C669.5,-782 546.5,-782 546.5,-782 540.5,-782 534.5,-776 534.5,-770 534.5,-770 534.5,-711 534.5,-711 534.5,-705 540.5,-699 546.5,-699 546.5,-699 669.5,-699 669.5,-699 675.5,-699 681.5,-705 681.5,-711 681.5,-711 681.5,-770 681.5,-770 681.5,-776 675.5,-782 669.5,-782"/>
<text text-anchor="start" x="556.5" y="-766.8" font-family="Helvetica,sans-Serif" font-size="14.00">relationship ≤ 0.5</text>
<text text-anchor="start" x="572.5" y="-751.8" font-family="Helvetica,sans-Serif" font-size="14.00">gini = 0.366</text>
<text text-anchor="start" x="555.5" y="-736.8" font-family="Helvetica,sans-Serif" font-size="14.00">samples = 32561</text>
<text text-anchor="start" x="542.5" y="-721.8" font-family="Helvetica,sans-Serif" font-size="14.00">value = [24720, 7841]</text>
<text text-anchor="start" x="562.5" y="-706.8" font-family="Helvetica,sans-Serif" font-size="14.00">class = &lt;=50K.</text>
</g>
<!-- 1 -->
<g id="node2" class="node">
<title>1</title>
<path fill="#fae7da" stroke="black" d="M590,-663C590,-663 452,-663 452,-663 446,-663 440,-657 440,-651 440,-651 440,-592 440,-592 440,-586 446,-580 452,-580 452,-580 590,-580 590,-580 596,-580 602,-586 602,-592 602,-592 602,-651 602,-651 602,-657 596,-663 590,-663"/>
<text text-anchor="start" x="455" y="-647.8" font-family="Helvetica,sans-Serif" font-size="14.00">education&#45;num ≤ 12.5</text>
<text text-anchor="start" x="485.5" y="-632.8" font-family="Helvetica,sans-Serif" font-size="14.00">gini = 0.495</text>
<text text-anchor="start" x="468.5" y="-617.8" font-family="Helvetica,sans-Serif" font-size="14.00">samples = 13193</text>
<text text-anchor="start" x="448" y="-602.8" font-family="Helvetica,sans-Serif" font-size="14.00">value = [7275.0, 5918.0]</text>
<text text-anchor="start" x="475.5" y="-587.8" font-family="Helvetica,sans-Serif" font-size="14.00">class = &lt;=50K.</text>
</g>
<!-- 0&#45;&gt;1 -->
<g id="edge1" class="edge">
<title>0&#45;&gt;1</title>
<path fill="none" stroke="black" d="M577.82,-698.91C571.14,-689.92 563.99,-680.32 557.1,-671.05"/>
<polygon fill="black" stroke="black" points="559.91,-668.96 551.13,-663.02 554.29,-673.13 559.91,-668.96"/>
<text text-anchor="middle" x="547.49" y="-684.05" font-family="Helvetica,sans-Serif" font-size="14.00">True</text>
</g>
<!-- 2 -->
<g id="node15" class="node">
<title>2</title>
<path fill="#e88f4f" stroke="black" d="M809.5,-663C809.5,-663 686.5,-663 686.5,-663 680.5,-663 674.5,-657 674.5,-651 674.5,-651 674.5,-592 674.5,-592 674.5,-586 680.5,-580 686.5,-580 686.5,-580 809.5,-580 809.5,-580 815.5,-580 821.5,-586 821.5,-592 821.5,-592 821.5,-651 821.5,-651 821.5,-657 815.5,-663 809.5,-663"/>
<text text-anchor="start" x="685" y="-647.8" font-family="Helvetica,sans-Serif" font-size="14.00">capital&#45;gain ≤ 7073.5</text>
<text text-anchor="start" x="712.5" y="-632.8" font-family="Helvetica,sans-Serif" font-size="14.00">gini = 0.179</text>
<text text-anchor="start" x="695.5" y="-617.8" font-family="Helvetica,sans-Serif" font-size="14.00">samples = 19368</text>
<text text-anchor="start" x="682.5" y="-602.8" font-family="Helvetica,sans-Serif" font-size="14.00">value = [17445, 1923]</text>
<text text-anchor="start" x="702.5" y="-587.8" font-family="Helvetica,sans-Serif" font-size="14.00">class = &lt;=50K.</text>
</g>
<!-- 0&#45;&gt;2 -->
<g id="edge14" class="edge">
<title>0&#45;&gt;2</title>
<path fill="none" stroke="black" d="M656.57,-698.91C667.87,-689.47 679.98,-679.34 691.58,-669.65"/>
<polygon fill="black" stroke="black" points="694.08,-672.12 699.51,-663.02 689.6,-666.75 694.08,-672.12"/>
<text text-anchor="middle" x="697.29" y="-684.22" font-family="Helvetica,sans-Serif" font-size="14.00">False</text>
</g>
<!-- 3 -->
<g id="node3" class="node">
<title>3</title>
<path fill="#f2bf9b" stroke="black" d="M366,-544C366,-544 228,-544 228,-544 222,-544 216,-538 216,-532 216,-532 216,-473 216,-473 216,-467 222,-461 228,-461 228,-461 366,-461 366,-461 372,-461 378,-467 378,-473 378,-473 378,-532 378,-532 378,-538 372,-544 366,-544"/>
<text text-anchor="start" x="234" y="-528.8" font-family="Helvetica,sans-Serif" font-size="14.00">capital&#45;gain ≤ 5095.5</text>
<text text-anchor="start" x="261.5" y="-513.8" font-family="Helvetica,sans-Serif" font-size="14.00">gini = 0.442</text>
<text text-anchor="start" x="248.5" y="-498.8" font-family="Helvetica,sans-Serif" font-size="14.00">samples = 9224</text>
<text text-anchor="start" x="224" y="-483.8" font-family="Helvetica,sans-Serif" font-size="14.00">value = [6178.0, 3046.0]</text>
<text text-anchor="start" x="251.5" y="-468.8" font-family="Helvetica,sans-Serif" font-size="14.00">class = &lt;=50K.</text>
</g>
<!-- 1&#45;&gt;3 -->
<g id="edge2" class="edge">
<title>1&#45;&gt;3</title>
<path fill="none" stroke="black" d="M443.28,-579.91C424,-569.83 403.21,-558.98 383.53,-548.7"/>
<polygon fill="black" stroke="black" points="385.06,-545.55 374.58,-544.02 381.82,-551.75 385.06,-545.55"/>
</g>
<!-- 4 -->
<g id="node12" class="node">
<title>4</title>
<path fill="#85c2ef" stroke="black" d="M580,-544C580,-544 462,-544 462,-544 456,-544 450,-538 450,-532 450,-532 450,-473 450,-473 450,-467 456,-461 462,-461 462,-461 580,-461 580,-461 586,-461 592,-467 592,-473 592,-473 592,-532 592,-532 592,-538 586,-544 580,-544"/>
<text text-anchor="start" x="458" y="-528.8" font-family="Helvetica,sans-Serif" font-size="14.00">capital&#45;gain ≤ 5095.5</text>
<text text-anchor="start" x="493" y="-513.8" font-family="Helvetica,sans-Serif" font-size="14.00">gini = 0.4</text>
<text text-anchor="start" x="472.5" y="-498.8" font-family="Helvetica,sans-Serif" font-size="14.00">samples = 3969</text>
<text text-anchor="start" x="459" y="-483.8" font-family="Helvetica,sans-Serif" font-size="14.00">value = [1097, 2872]</text>
<text text-anchor="start" x="479.5" y="-468.8" font-family="Helvetica,sans-Serif" font-size="14.00">class = &gt;50K.</text>
</g>
<!-- 1&#45;&gt;4 -->
<g id="edge11" class="edge">
<title>1&#45;&gt;4</title>
<path fill="none" stroke="black" d="M521,-579.91C521,-571.65 521,-562.86 521,-554.3"/>
<polygon fill="black" stroke="black" points="524.5,-554.02 521,-544.02 517.5,-554.02 524.5,-554.02"/>
</g>
<!-- 7 -->
<g id="node4" class="node">
<title>7</title>
<path fill="#f0b68c" stroke="black" d="M212,-425C212,-425 74,-425 74,-425 68,-425 62,-419 62,-413 62,-413 62,-354 62,-354 62,-348 68,-342 74,-342 74,-342 212,-342 212,-342 218,-342 224,-348 224,-354 224,-354 224,-413 224,-413 224,-419 218,-425 212,-425"/>
<text text-anchor="start" x="81" y="-409.8" font-family="Helvetica,sans-Serif" font-size="14.00">education&#45;num ≤ 8.5</text>
<text text-anchor="start" x="107.5" y="-394.8" font-family="Helvetica,sans-Serif" font-size="14.00">gini = 0.417</text>
<text text-anchor="start" x="94.5" y="-379.8" font-family="Helvetica,sans-Serif" font-size="14.00">samples = 8766</text>
<text text-anchor="start" x="70" y="-364.8" font-family="Helvetica,sans-Serif" font-size="14.00">value = [6170.0, 2596.0]</text>
<text text-anchor="start" x="97.5" y="-349.8" font-family="Helvetica,sans-Serif" font-size="14.00">class = &lt;=50K.</text>
</g>
<!-- 3&#45;&gt;7 -->
<g id="edge3" class="edge">
<title>3&#45;&gt;7</title>
<path fill="none" stroke="black" d="M243.57,-460.91C230.91,-451.29 217.31,-440.95 204.32,-431.09"/>
<polygon fill="black" stroke="black" points="206.42,-428.28 196.34,-425.02 202.18,-433.86 206.42,-428.28"/>
</g>
<!-- 8 -->
<g id="node11" class="node">
<title>8</title>
<path fill="#3d9fe5" stroke="black" d="M340,-417.5C340,-417.5 254,-417.5 254,-417.5 248,-417.5 242,-411.5 242,-405.5 242,-405.5 242,-361.5 242,-361.5 242,-355.5 248,-349.5 254,-349.5 254,-349.5 340,-349.5 340,-349.5 346,-349.5 352,-355.5 352,-361.5 352,-361.5 352,-405.5 352,-405.5 352,-411.5 346,-417.5 340,-417.5"/>
<text text-anchor="start" x="261.5" y="-402.3" font-family="Helvetica,sans-Serif" font-size="14.00">gini = 0.034</text>
<text text-anchor="start" x="252" y="-387.3" font-family="Helvetica,sans-Serif" font-size="14.00">samples = 458</text>
<text text-anchor="start" x="250" y="-372.3" font-family="Helvetica,sans-Serif" font-size="14.00">value = [8, 450]</text>
<text text-anchor="start" x="255.5" y="-357.3" font-family="Helvetica,sans-Serif" font-size="14.00">class = &gt;50K.</text>
</g>
<!-- 3&#45;&gt;8 -->
<g id="edge10" class="edge">
<title>3&#45;&gt;8</title>
<path fill="none" stroke="black" d="M297,-460.91C297,-450.2 297,-438.62 297,-427.78"/>
<polygon fill="black" stroke="black" points="300.5,-427.67 297,-417.67 293.5,-427.67 300.5,-427.67"/>
</g>
<!-- 11 -->
<g id="node5" class="node">
<title>11</title>
<path fill="#e89050" stroke="black" d="M120,-298.5C120,-298.5 12,-298.5 12,-298.5 6,-298.5 0,-292.5 0,-286.5 0,-286.5 0,-242.5 0,-242.5 0,-236.5 6,-230.5 12,-230.5 12,-230.5 120,-230.5 120,-230.5 126,-230.5 132,-236.5 132,-242.5 132,-242.5 132,-286.5 132,-286.5 132,-292.5 126,-298.5 120,-298.5"/>
<text text-anchor="start" x="30.5" y="-283.3" font-family="Helvetica,sans-Serif" font-size="14.00">gini = 0.186</text>
<text text-anchor="start" x="17.5" y="-268.3" font-family="Helvetica,sans-Serif" font-size="14.00">samples = 1459</text>
<text text-anchor="start" x="8" y="-253.3" font-family="Helvetica,sans-Serif" font-size="14.00">value = [1308, 151]</text>
<text text-anchor="start" x="20.5" y="-238.3" font-family="Helvetica,sans-Serif" font-size="14.00">class = &lt;=50K.</text>
</g>
<!-- 7&#45;&gt;11 -->
<g id="edge4" class="edge">
<title>7&#45;&gt;11</title>
<path fill="none" stroke="black" d="M116.29,-341.91C108.88,-330.65 100.83,-318.42 93.38,-307.11"/>
<polygon fill="black" stroke="black" points="96.25,-305.1 87.83,-298.67 90.4,-308.94 96.25,-305.1"/>
</g>
<!-- 12 -->
<g id="node6" class="node">
<title>12</title>
<path fill="#f2c09d" stroke="black" d="M278,-306C278,-306 162,-306 162,-306 156,-306 150,-300 150,-294 150,-294 150,-235 150,-235 150,-229 156,-223 162,-223 162,-223 278,-223 278,-223 284,-223 290,-229 290,-235 290,-235 290,-294 290,-294 290,-300 284,-306 278,-306"/>
<text text-anchor="start" x="158" y="-290.8" font-family="Helvetica,sans-Serif" font-size="14.00">capital&#45;loss ≤ 1782.5</text>
<text text-anchor="start" x="184.5" y="-275.8" font-family="Helvetica,sans-Serif" font-size="14.00">gini = 0.445</text>
<text text-anchor="start" x="171.5" y="-260.8" font-family="Helvetica,sans-Serif" font-size="14.00">samples = 7307</text>
<text text-anchor="start" x="158" y="-245.8" font-family="Helvetica,sans-Serif" font-size="14.00">value = [4862, 2445]</text>
<text text-anchor="start" x="174.5" y="-230.8" font-family="Helvetica,sans-Serif" font-size="14.00">class = &lt;=50K.</text>
</g>
<!-- 7&#45;&gt;12 -->
<g id="edge5" class="edge">
<title>7&#45;&gt;12</title>
<path fill="none" stroke="black" d="M169.71,-341.91C175.51,-333.1 181.7,-323.7 187.68,-314.61"/>
<polygon fill="black" stroke="black" points="190.76,-316.3 193.33,-306.02 184.91,-312.45 190.76,-316.3"/>
</g>
<!-- 13 -->
<g id="node7" class="node">
<title>13</title>
<path fill="#f1bb95" stroke="black" d="M205,-187C205,-187 89,-187 89,-187 83,-187 77,-181 77,-175 77,-175 77,-116 77,-116 77,-110 83,-104 89,-104 89,-104 205,-104 205,-104 211,-104 217,-110 217,-116 217,-116 217,-175 217,-175 217,-181 211,-187 205,-187"/>
<text text-anchor="start" x="115" y="-171.8" font-family="Helvetica,sans-Serif" font-size="14.00">age ≤ 35.5</text>
<text text-anchor="start" x="111.5" y="-156.8" font-family="Helvetica,sans-Serif" font-size="14.00">gini = 0.433</text>
<text text-anchor="start" x="98.5" y="-141.8" font-family="Helvetica,sans-Serif" font-size="14.00">samples = 7007</text>
<text text-anchor="start" x="85" y="-126.8" font-family="Helvetica,sans-Serif" font-size="14.00">value = [4787, 2220]</text>
<text text-anchor="start" x="101.5" y="-111.8" font-family="Helvetica,sans-Serif" font-size="14.00">class = &lt;=50K.</text>
</g>
<!-- 12&#45;&gt;13 -->
<g id="edge6" class="edge">
<title>12&#45;&gt;13</title>
<path fill="none" stroke="black" d="M194.67,-222.91C189.18,-214.1 183.31,-204.7 177.64,-195.61"/>
<polygon fill="black" stroke="black" points="180.55,-193.65 172.28,-187.02 174.61,-197.36 180.55,-193.65"/>
</g>
<!-- 14 -->
<g id="node10" class="node">
<title>14</title>
<path fill="#7bbeee" stroke="black" d="M340.5,-179.5C340.5,-179.5 247.5,-179.5 247.5,-179.5 241.5,-179.5 235.5,-173.5 235.5,-167.5 235.5,-167.5 235.5,-123.5 235.5,-123.5 235.5,-117.5 241.5,-111.5 247.5,-111.5 247.5,-111.5 340.5,-111.5 340.5,-111.5 346.5,-111.5 352.5,-117.5 352.5,-123.5 352.5,-123.5 352.5,-167.5 352.5,-167.5 352.5,-173.5 346.5,-179.5 340.5,-179.5"/>
<text text-anchor="start" x="258.5" y="-164.3" font-family="Helvetica,sans-Serif" font-size="14.00">gini = 0.375</text>
<text text-anchor="start" x="249" y="-149.3" font-family="Helvetica,sans-Serif" font-size="14.00">samples = 300</text>
<text text-anchor="start" x="243.5" y="-134.3" font-family="Helvetica,sans-Serif" font-size="14.00">value = [75, 225]</text>
<text text-anchor="start" x="252.5" y="-119.3" font-family="Helvetica,sans-Serif" font-size="14.00">class = &gt;50K.</text>
</g>
<!-- 12&#45;&gt;14 -->
<g id="edge9" class="edge">
<title>12&#45;&gt;14</title>
<path fill="none" stroke="black" d="M245.67,-222.91C252.72,-211.76 260.38,-199.66 267.47,-188.44"/>
<polygon fill="black" stroke="black" points="270.64,-189.99 273.02,-179.67 264.72,-186.25 270.64,-189.99"/>
</g>
<!-- 17 -->
<g id="node8" class="node">
<title>17</title>
<path fill="#eca16b" stroke="black" d="M124,-68C124,-68 16,-68 16,-68 10,-68 4,-62 4,-56 4,-56 4,-12 4,-12 4,-6 10,0 16,0 16,0 124,0 124,0 130,0 136,-6 136,-12 136,-12 136,-56 136,-56 136,-62 130,-68 124,-68"/>
<text text-anchor="start" x="34.5" y="-52.8" font-family="Helvetica,sans-Serif" font-size="14.00">gini = 0.321</text>
<text text-anchor="start" x="21.5" y="-37.8" font-family="Helvetica,sans-Serif" font-size="14.00">samples = 2272</text>
<text text-anchor="start" x="12" y="-22.8" font-family="Helvetica,sans-Serif" font-size="14.00">value = [1816, 456]</text>
<text text-anchor="start" x="24.5" y="-7.8" font-family="Helvetica,sans-Serif" font-size="14.00">class = &lt;=50K.</text>
</g>
<!-- 13&#45;&gt;17 -->
<g id="edge7" class="edge">
<title>13&#45;&gt;17</title>
<path fill="none" stroke="black" d="M118.33,-103.73C112.11,-94.88 105.52,-85.51 99.27,-76.63"/>
<polygon fill="black" stroke="black" points="102.03,-74.47 93.42,-68.3 96.31,-78.49 102.03,-74.47"/>
</g>
<!-- 18 -->
<g id="node9" class="node">
<title>18</title>
<path fill="#f4ccaf" stroke="black" d="M282,-68C282,-68 166,-68 166,-68 160,-68 154,-62 154,-56 154,-56 154,-12 154,-12 154,-6 160,0 166,0 166,0 282,0 282,0 288,0 294,-6 294,-12 294,-12 294,-56 294,-56 294,-62 288,-68 282,-68"/>
<text text-anchor="start" x="188.5" y="-52.8" font-family="Helvetica,sans-Serif" font-size="14.00">gini = 0.468</text>
<text text-anchor="start" x="175.5" y="-37.8" font-family="Helvetica,sans-Serif" font-size="14.00">samples = 4735</text>
<text text-anchor="start" x="162" y="-22.8" font-family="Helvetica,sans-Serif" font-size="14.00">value = [2971, 1764]</text>
<text text-anchor="start" x="178.5" y="-7.8" font-family="Helvetica,sans-Serif" font-size="14.00">class = &lt;=50K.</text>
</g>
<!-- 13&#45;&gt;18 -->
<g id="edge8" class="edge">
<title>13&#45;&gt;18</title>
<path fill="none" stroke="black" d="M175.67,-103.73C181.89,-94.88 188.48,-85.51 194.73,-76.63"/>
<polygon fill="black" stroke="black" points="197.69,-78.49 200.58,-68.3 191.97,-74.47 197.69,-78.49"/>
</g>
<!-- 15 -->
<g id="node13" class="node">
<title>15</title>
<path fill="#99ccf2" stroke="black" d="M498,-417.5C498,-417.5 382,-417.5 382,-417.5 376,-417.5 370,-411.5 370,-405.5 370,-405.5 370,-361.5 370,-361.5 370,-355.5 376,-349.5 382,-349.5 382,-349.5 498,-349.5 498,-349.5 504,-349.5 510,-355.5 510,-361.5 510,-361.5 510,-405.5 510,-405.5 510,-411.5 504,-417.5 498,-417.5"/>
<text text-anchor="start" x="404.5" y="-402.3" font-family="Helvetica,sans-Serif" font-size="14.00">gini = 0.439</text>
<text text-anchor="start" x="391.5" y="-387.3" font-family="Helvetica,sans-Serif" font-size="14.00">samples = 3356</text>
<text text-anchor="start" x="378" y="-372.3" font-family="Helvetica,sans-Serif" font-size="14.00">value = [1094, 2262]</text>
<text text-anchor="start" x="398.5" y="-357.3" font-family="Helvetica,sans-Serif" font-size="14.00">class = &gt;50K.</text>
</g>
<!-- 4&#45;&gt;15 -->
<g id="edge12" class="edge">
<title>4&#45;&gt;15</title>
<path fill="none" stroke="black" d="M492.9,-460.91C485.11,-449.65 476.64,-437.42 468.8,-426.11"/>
<polygon fill="black" stroke="black" points="471.53,-423.9 462.96,-417.67 465.78,-427.88 471.53,-423.9"/>
</g>
<!-- 16 -->
<g id="node14" class="node">
<title>16</title>
<path fill="#3a9de5" stroke="black" d="M648,-417.5C648,-417.5 540,-417.5 540,-417.5 534,-417.5 528,-411.5 528,-405.5 528,-405.5 528,-361.5 528,-361.5 528,-355.5 534,-349.5 540,-349.5 540,-349.5 648,-349.5 648,-349.5 654,-349.5 660,-355.5 660,-361.5 660,-361.5 660,-405.5 660,-405.5 660,-411.5 654,-417.5 648,-417.5"/>
<text text-anchor="start" x="562" y="-402.3" font-family="Helvetica,sans-Serif" font-size="14.00">gini = 0.01</text>
<text text-anchor="start" x="549" y="-387.3" font-family="Helvetica,sans-Serif" font-size="14.00">samples = 613</text>
<text text-anchor="start" x="536" y="-372.3" font-family="Helvetica,sans-Serif" font-size="14.00">value = [3.0, 610.0]</text>
<text text-anchor="start" x="552.5" y="-357.3" font-family="Helvetica,sans-Serif" font-size="14.00">class = &gt;50K.</text>
</g>
<!-- 4&#45;&gt;16 -->
<g id="edge13" class="edge">
<title>4&#45;&gt;16</title>
<path fill="none" stroke="black" d="M546.33,-460.91C553.28,-449.76 560.83,-437.66 567.83,-426.44"/>
<polygon fill="black" stroke="black" points="570.98,-428 573.31,-417.67 565.04,-424.3 570.98,-428"/>
</g>
<!-- 5 -->
<g id="node16" class="node">
<title>5</title>
<path fill="#e78c4a" stroke="black" d="M821,-544C821,-544 675,-544 675,-544 669,-544 663,-538 663,-532 663,-532 663,-473 663,-473 663,-467 669,-461 675,-461 675,-461 821,-461 821,-461 827,-461 833,-467 833,-473 833,-473 833,-532 833,-532 833,-538 827,-544 821,-544"/>
<text text-anchor="start" x="696.5" y="-528.8" font-family="Helvetica,sans-Serif" font-size="14.00">relationship ≤ 4.5</text>
<text text-anchor="start" x="712.5" y="-513.8" font-family="Helvetica,sans-Serif" font-size="14.00">gini = 0.146</text>
<text text-anchor="start" x="695.5" y="-498.8" font-family="Helvetica,sans-Serif" font-size="14.00">samples = 18932</text>
<text text-anchor="start" x="671" y="-483.8" font-family="Helvetica,sans-Serif" font-size="14.00">value = [17431.0, 1501.0]</text>
<text text-anchor="start" x="702.5" y="-468.8" font-family="Helvetica,sans-Serif" font-size="14.00">class = &lt;=50K.</text>
</g>
<!-- 2&#45;&gt;5 -->
<g id="edge15" class="edge">
<title>2&#45;&gt;5</title>
<path fill="none" stroke="black" d="M748,-579.91C748,-571.65 748,-562.86 748,-554.3"/>
<polygon fill="black" stroke="black" points="751.5,-554.02 748,-544.02 744.5,-554.02 751.5,-554.02"/>
</g>
<!-- 6 -->
<g id="node19" class="node">
<title>6</title>
<path fill="#40a0e6" stroke="black" d="M956.5,-536.5C956.5,-536.5 863.5,-536.5 863.5,-536.5 857.5,-536.5 851.5,-530.5 851.5,-524.5 851.5,-524.5 851.5,-480.5 851.5,-480.5 851.5,-474.5 857.5,-468.5 863.5,-468.5 863.5,-468.5 956.5,-468.5 956.5,-468.5 962.5,-468.5 968.5,-474.5 968.5,-480.5 968.5,-480.5 968.5,-524.5 968.5,-524.5 968.5,-530.5 962.5,-536.5 956.5,-536.5"/>
<text text-anchor="start" x="874.5" y="-521.3" font-family="Helvetica,sans-Serif" font-size="14.00">gini = 0.062</text>
<text text-anchor="start" x="865" y="-506.3" font-family="Helvetica,sans-Serif" font-size="14.00">samples = 436</text>
<text text-anchor="start" x="859.5" y="-491.3" font-family="Helvetica,sans-Serif" font-size="14.00">value = [14, 422]</text>
<text text-anchor="start" x="868.5" y="-476.3" font-family="Helvetica,sans-Serif" font-size="14.00">class = &gt;50K.</text>
</g>
<!-- 2&#45;&gt;6 -->
<g id="edge18" class="edge">
<title>2&#45;&gt;6</title>
<path fill="none" stroke="black" d="M804.21,-579.91C820.86,-567.88 839.06,-554.73 855.6,-542.79"/>
<polygon fill="black" stroke="black" points="858.02,-545.36 864.08,-536.67 853.92,-539.68 858.02,-545.36"/>
</g>
<!-- 9 -->
<g id="node17" class="node">
<title>9</title>
<path fill="#e68843" stroke="black" d="M806,-417.5C806,-417.5 690,-417.5 690,-417.5 684,-417.5 678,-411.5 678,-405.5 678,-405.5 678,-361.5 678,-361.5 678,-355.5 684,-349.5 690,-349.5 690,-349.5 806,-349.5 806,-349.5 812,-349.5 818,-355.5 818,-361.5 818,-361.5 818,-405.5 818,-405.5 818,-411.5 812,-417.5 806,-417.5"/>
<text text-anchor="start" x="712.5" y="-402.3" font-family="Helvetica,sans-Serif" font-size="14.00">gini = 0.095</text>
<text text-anchor="start" x="695.5" y="-387.3" font-family="Helvetica,sans-Serif" font-size="14.00">samples = 17482</text>
<text text-anchor="start" x="686" y="-372.3" font-family="Helvetica,sans-Serif" font-size="14.00">value = [16610, 872]</text>
<text text-anchor="start" x="702.5" y="-357.3" font-family="Helvetica,sans-Serif" font-size="14.00">class = &lt;=50K.</text>
</g>
<!-- 5&#45;&gt;9 -->
<g id="edge16" class="edge">
<title>5&#45;&gt;9</title>
<path fill="none" stroke="black" d="M748,-460.91C748,-450.2 748,-438.62 748,-427.78"/>
<polygon fill="black" stroke="black" points="751.5,-427.67 748,-417.67 744.5,-427.67 751.5,-427.67"/>
</g>
<!-- 10 -->
<g id="node18" class="node">
<title>10</title>
<path fill="#f9e2d1" stroke="black" d="M971.5,-417.5C971.5,-417.5 848.5,-417.5 848.5,-417.5 842.5,-417.5 836.5,-411.5 836.5,-405.5 836.5,-405.5 836.5,-361.5 836.5,-361.5 836.5,-355.5 842.5,-349.5 848.5,-349.5 848.5,-349.5 971.5,-349.5 971.5,-349.5 977.5,-349.5 983.5,-355.5 983.5,-361.5 983.5,-361.5 983.5,-405.5 983.5,-405.5 983.5,-411.5 977.5,-417.5 971.5,-417.5"/>
<text text-anchor="start" x="874.5" y="-402.3" font-family="Helvetica,sans-Serif" font-size="14.00">gini = 0.491</text>
<text text-anchor="start" x="861.5" y="-387.3" font-family="Helvetica,sans-Serif" font-size="14.00">samples = 1450</text>
<text text-anchor="start" x="844.5" y="-372.3" font-family="Helvetica,sans-Serif" font-size="14.00">value = [821.0, 629.0]</text>
<text text-anchor="start" x="864.5" y="-357.3" font-family="Helvetica,sans-Serif" font-size="14.00">class = &lt;=50K.</text>
</g>
<!-- 5&#45;&gt;10 -->
<g id="edge17" class="edge">
<title>5&#45;&gt;10</title>
<path fill="none" stroke="black" d="M804.21,-460.91C820.86,-448.88 839.06,-435.73 855.6,-423.79"/>
<polygon fill="black" stroke="black" points="858.02,-426.36 864.08,-417.67 853.92,-420.68 858.02,-426.36"/>
</g>
<!-- \n -->
<g id="node20" class="node">
<title>\n</title>
<path fill="black" stroke="black" d="M742,-758.5C742,-758.5 712,-758.5 712,-758.5 706,-758.5 700,-752.5 700,-746.5 700,-746.5 700,-734.5 700,-734.5 700,-728.5 706,-722.5 712,-722.5 712,-722.5 742,-722.5 742,-722.5 748,-722.5 754,-728.5 754,-734.5 754,-734.5 754,-746.5 754,-746.5 754,-752.5 748,-758.5 742,-758.5"/>
</g>
</g>
</svg>
